<svg width="18" height="21" viewBox="0 0 18 21" fill="none" xmlns="http://www.w3.org/2000/svg">
<g filter="url(#filter0_d_49_103)">
<path d="M11.4674 3.99476C11.4674 3.69346 11.5349 3.43372 11.67 3.21554C11.8155 2.98697 12.0284 2.87268 12.309 2.87268C12.5479 2.87268 12.7609 2.91943 12.9479 3.01294C13.1349 3.10645 13.2284 3.26229 13.2284 3.48047C13.2284 3.90645 13.2077 4.50385 13.1661 5.27268C13.1246 6.02073 13.1038 6.57658 13.1038 6.94021C13.1038 7.51164 13.1246 8.27528 13.1661 9.23112C13.2077 10.1454 13.2284 10.8155 13.2284 11.2415C13.2284 11.5844 13.2233 11.8389 13.2129 12.0051C13.2129 12.1714 13.1194 12.3376 12.9323 12.5039C12.7557 12.6597 12.4804 12.7376 12.1064 12.7376C11.909 12.7376 11.7375 12.7064 11.5921 12.6441C11.457 12.5714 11.3635 12.4935 11.3116 12.4103C10.8233 11.8181 10.1116 10.8103 9.1765 9.38697C8.12715 7.79736 7.27001 6.58177 6.60507 5.74021C6.68819 6.48827 6.72975 7.40255 6.72975 8.48307C6.72975 8.96099 6.71936 9.58437 6.69858 10.3532C6.68819 11.1116 6.66741 11.6103 6.63624 11.8493C6.59468 12.1506 6.50118 12.3844 6.35572 12.5506C6.22066 12.7064 6.00248 12.7844 5.70118 12.7844C5.47261 12.7844 5.30118 12.722 5.18689 12.5974C5.083 12.4623 5.02066 12.2337 4.99988 11.9116C4.98949 11.4857 5.01546 10.8467 5.0778 9.99476C5.08819 9.85969 5.10377 9.62593 5.12455 9.29346C5.14533 8.96099 5.15572 8.66489 5.15572 8.40515C5.15572 7.68827 5.11936 6.86749 5.04663 5.94281C4.98429 4.92463 4.95312 4.17138 4.95312 3.68307C4.95312 3.43372 5.04144 3.24151 5.21806 3.10645C5.40507 2.97138 5.61806 2.90385 5.85702 2.90385C6.06481 2.90385 6.283 2.9558 6.51157 3.05969C7.40507 4.18177 8.61546 5.8545 10.1427 8.07788L11.6077 10.322C11.6181 10.1558 11.6233 9.92203 11.6233 9.62073C11.6233 9.09086 11.6129 8.51943 11.5921 7.90645C11.5713 7.29346 11.5557 6.87788 11.5453 6.65969C11.4934 5.6519 11.4674 4.76359 11.4674 3.99476Z" fill="#807F7F"/>
</g>
<path d="M1 0H1.41558V0.415584H1V0Z" fill="#807F7F"/>
<path fill-rule="evenodd" clip-rule="evenodd" d="M15.961 1.03896H2.03896V14.961H15.961V1.03896ZM1 0V16H17V0H1Z" fill="#807F7F"/>
<defs>
<filter id="filter0_d_49_103" x="0.953125" y="2.87268" width="16.2754" height="17.9117" filterUnits="userSpaceOnUse" color-interpolation-filters="sRGB">
<feFlood flood-opacity="0" result="BackgroundImageFix"/>
<feColorMatrix in="SourceAlpha" type="matrix" values="0 0 0 0 0 0 0 0 0 0 0 0 0 0 0 0 0 0 127 0" result="hardAlpha"/>
<feOffset dy="4"/>
<feGaussianBlur stdDeviation="2"/>
<feComposite in2="hardAlpha" operator="out"/>
<feColorMatrix type="matrix" values="0 0 0 0 0 0 0 0 0 0 0 0 0 0 0 0 0 0 0.25 0"/>
<feBlend mode="normal" in2="BackgroundImageFix" result="effect1_dropShadow_49_103"/>
<feBlend mode="normal" in="SourceGraphic" in2="effect1_dropShadow_49_103" result="shape"/>
</filter>
</defs>
</svg>
