<svg width="597" height="694" viewBox="0 0 597 694" fill="none" xmlns="http://www.w3.org/2000/svg">
<path fill-rule="evenodd" clip-rule="evenodd" d="M259.787 9.46835C266.573 19.3823 264.037 32.92 254.123 39.7057L179.244 90.9578C-129.466 302.258 141.003 776.479 480.023 618.352L565.461 578.501C576.349 573.423 589.292 578.132 594.37 589.02C599.448 599.908 594.739 612.851 583.851 617.929L498.413 657.78C110.948 838.503 -198.128 296.533 154.67 55.0564L229.55 3.80427C239.464 -2.98149 253.002 -0.445463 259.787 9.46835Z" fill="black"/>
<path fill-rule="evenodd" clip-rule="evenodd" d="M250.501 2.07815C261.608 6.65631 266.901 19.3719 262.323 30.4792L254.589 49.2421C155.819 288.873 318.557 555.375 576.843 576.972C588.815 577.974 597.709 588.49 596.708 600.462C595.707 612.434 585.19 621.328 573.218 620.327C285.598 596.277 104.379 299.508 214.366 32.6631L222.1 13.9002C226.678 2.79287 239.394 -2.50002 250.501 2.07815Z" fill="black"/>
<path d="M366.326 218.619L379.268 259.954H421.149L387.266 285.5L400.209 326.835L366.326 301.289L332.443 326.835L345.385 285.5L311.502 259.954H353.383L366.326 218.619Z" fill="black"/>
<path d="M447.355 11.9662L465.547 67.9562H524.419L476.791 102.56L494.983 158.55L447.355 123.946L399.727 158.55L417.919 102.56L370.291 67.9562H429.163L447.355 11.9662Z" fill="black"/>
</svg>
