<svg width="575" height="438" viewBox="0 0 575 438" fill="none" xmlns="http://www.w3.org/2000/svg">
<path fill-rule="evenodd" clip-rule="evenodd" d="M267.315 11.6235C303.458 -16.3776 356 9.3816 356 55.1016V382.411C356 426.576 306.572 452.728 270.059 427.883L165.059 356.435C150.008 346.193 141 329.168 141 310.964V136.45C141 119.441 148.87 103.389 162.315 92.9723L267.315 11.6235ZM326 55.1016C326 34.3198 302.117 22.6111 285.689 35.3389L180.689 116.688C174.577 121.423 171 128.719 171 136.45V310.964C171 319.238 175.095 326.977 181.936 331.632L286.936 403.08C303.533 414.373 326 402.486 326 382.411V55.1016Z" fill="white"/>
<path fill-rule="evenodd" clip-rule="evenodd" d="M399.393 132.905C405.251 127.047 414.749 127.047 420.607 132.905L563.607 275.905C569.465 281.763 569.465 291.26 563.607 297.118C557.749 302.976 548.251 302.976 542.393 297.118L399.393 154.118C393.536 148.26 393.536 138.763 399.393 132.905Z" fill="white"/>
<path fill-rule="evenodd" clip-rule="evenodd" d="M563.607 132.905C569.464 138.763 569.464 148.26 563.607 154.118L420.607 297.118C414.749 302.976 405.251 302.976 399.393 297.118C393.536 291.26 393.536 281.763 399.393 275.905L542.393 132.905C548.251 127.047 557.749 127.047 563.607 132.905Z" fill="white"/>
<path fill-rule="evenodd" clip-rule="evenodd" d="M75 153.011H40C34.4771 153.011 30 157.489 30 163.011V301.011C30 306.534 34.4772 311.011 40 311.011H75C80.5229 311.011 85 306.534 85 301.011V163.011C85 157.489 80.5229 153.011 75 153.011ZM40 123.011C17.9086 123.011 0 140.92 0 163.011V301.011C0 323.103 17.9086 341.011 40 341.011H75C97.0914 341.011 115 323.103 115 301.011V163.011C115 140.92 97.0914 123.011 75 123.011H40Z" fill="white"/>
</svg>
