<svg width="574" height="438" viewBox="0 0 574 438" fill="none" xmlns="http://www.w3.org/2000/svg">
<path fill-rule="evenodd" clip-rule="evenodd" d="M75 153.011H40C34.4771 153.011 30 157.489 30 163.011V301.011C30 306.534 34.4772 311.011 40 311.011H75C80.5229 311.011 85 306.534 85 301.011V163.011C85 157.489 80.5229 153.011 75 153.011ZM40 123.011C17.9086 123.011 0 140.92 0 163.011V301.011C0 323.103 17.9086 341.011 40 341.011H75C97.0914 341.011 115 323.103 115 301.011V163.011C115 140.92 97.0914 123.011 75 123.011H40Z" fill="black"/>
<path fill-rule="evenodd" clip-rule="evenodd" d="M267.315 11.6235C303.458 -16.3776 356 9.3816 356 55.1016V382.411C356 426.576 306.572 452.728 270.059 427.883L165.059 356.435C150.008 346.193 141 329.168 141 310.964V136.45C141 119.441 148.87 103.389 162.315 92.9723L267.315 11.6235ZM326 55.1016C326 34.3198 302.117 22.6111 285.689 35.3389L180.689 116.688C174.577 121.423 171 128.719 171 136.45V310.964C171 319.238 175.095 326.977 181.936 331.632L286.936 403.08C303.533 414.373 326 402.486 326 382.411V55.1016Z" fill="black"/>
<path fill-rule="evenodd" clip-rule="evenodd" d="M429.366 316.132C484.878 260.62 482.673 169.962 424.528 117.214L444.685 94.9949C515.525 159.259 518.212 269.713 450.579 337.345L445.213 342.711L424 321.498L429.366 316.132Z" fill="black"/>
<path fill-rule="evenodd" clip-rule="evenodd" d="M489.976 348.515C563.961 274.455 561.021 153.585 483.523 83.2093L503.691 61C593.87 142.891 597.291 283.54 511.199 369.718L504.218 376.706L482.995 355.503L489.976 348.515Z" fill="black"/>
</svg>
