<svg width="575" height="438" viewBox="0 0 575 438" fill="none" xmlns="http://www.w3.org/2000/svg">
<path fill-rule="evenodd" clip-rule="evenodd" d="M267.315 12.1121C303.458 -15.889 356 9.87019 356 55.5902V382.9C356 427.065 306.572 453.217 270.059 428.371L165.059 356.923C150.008 346.682 141 329.657 141 311.452V136.939C141 119.93 148.87 103.878 162.315 93.4609L267.315 12.1121ZM326 55.5902C326 34.8084 302.117 23.0997 285.689 35.8274L180.689 117.176C174.577 121.911 171 129.208 171 136.939V311.452C171 319.727 175.095 327.466 181.936 332.121L286.936 403.569C303.533 414.862 326 402.975 326 382.9V55.5902Z" fill="black"/>
<path fill-rule="evenodd" clip-rule="evenodd" d="M399.393 133.393C405.251 127.536 414.749 127.536 420.607 133.393L563.607 276.393C569.465 282.251 569.465 291.749 563.607 297.607C557.749 303.464 548.251 303.464 542.393 297.607L399.393 154.607C393.536 148.749 393.536 139.251 399.393 133.393Z" fill="black"/>
<path fill-rule="evenodd" clip-rule="evenodd" d="M563.607 133.393C569.464 139.251 569.464 148.749 563.607 154.607L420.607 297.607C414.749 303.465 405.251 303.465 399.393 297.607C393.536 291.749 393.536 282.251 399.393 276.393L542.393 133.393C548.251 127.536 557.749 127.536 563.607 133.393Z" fill="black"/>
<path fill-rule="evenodd" clip-rule="evenodd" d="M75 153.5H40C34.4771 153.5 30 157.977 30 163.5V301.5C30 307.023 34.4772 311.5 40 311.5H75C80.5229 311.5 85 307.023 85 301.5V163.5C85 157.977 80.5229 153.5 75 153.5ZM40 123.5C17.9086 123.5 0 141.409 0 163.5V301.5C0 323.591 17.9086 341.5 40 341.5H75C97.0914 341.5 115 323.591 115 301.5V163.5C115 141.409 97.0914 123.5 75 123.5H40Z" fill="black"/>
</svg>
