<svg width="694" height="694" viewBox="0 0 694 694" fill="none" xmlns="http://www.w3.org/2000/svg">
<path d="M498.464 343.5C498.464 426.067 430.651 493 347 493C263.349 493 195.536 426.067 195.536 343.5C195.536 260.933 263.349 194 347 194C430.651 194 498.464 260.933 498.464 343.5Z" fill="white"/>
<path fill-rule="evenodd" clip-rule="evenodd" d="M347 453C408.27 453 457.939 403.975 457.939 343.5C457.939 283.025 408.27 234 347 234C285.73 234 236.061 283.025 236.061 343.5C236.061 403.975 285.73 453 347 453ZM347 493C430.651 493 498.464 426.067 498.464 343.5C498.464 260.933 430.651 194 347 194C263.349 194 195.536 260.933 195.536 343.5C195.536 426.067 263.349 493 347 493Z" fill="white"/>
<path fill-rule="evenodd" clip-rule="evenodd" d="M348.52 -8.74228e-07C359.711 -3.91405e-07 368.782 8.9543 368.782 20L368.782 120C368.782 131.046 359.711 140 348.52 140C337.329 140 328.257 131.046 328.257 120L328.257 20C328.257 8.9543 337.329 -1.35705e-06 348.52 -8.74228e-07Z" fill="white"/>
<path fill-rule="evenodd" clip-rule="evenodd" d="M348.52 554C359.711 554 368.782 562.954 368.782 574L368.782 674C368.782 685.046 359.711 694 348.52 694C337.329 694 328.257 685.046 328.257 674L328.257 574C328.257 562.954 337.329 554 348.52 554Z" fill="white"/>
<path fill-rule="evenodd" clip-rule="evenodd" d="M0 344C0 332.954 9.07195 324 20.2628 324H121.577C132.767 324 141.839 332.954 141.839 344C141.839 355.046 132.767 364 121.577 364H20.2628C9.07195 364 0 355.046 0 344Z" fill="white"/>
<path fill-rule="evenodd" clip-rule="evenodd" d="M97.1173 577.853C89.2041 570.042 89.2041 557.379 97.1173 549.569L168.757 478.858C176.67 471.047 189.5 471.047 197.413 478.858C205.326 486.668 205.326 499.332 197.413 507.142L125.773 577.853C117.86 585.663 105.03 585.663 97.1173 577.853Z" fill="white"/>
<path fill-rule="evenodd" clip-rule="evenodd" d="M97.1174 98.858C105.03 91.0475 117.86 91.0475 125.773 98.858L197.413 169.569C205.326 177.379 205.326 190.042 197.413 197.853C189.5 205.663 176.67 205.663 168.757 197.853L97.1174 127.142C89.2043 119.332 89.2043 106.668 97.1174 98.858Z" fill="white"/>
<path fill-rule="evenodd" clip-rule="evenodd" d="M499.333 478.858C507.247 471.047 520.076 471.047 527.989 478.858L599.629 549.569C607.542 557.379 607.542 570.042 599.629 577.853C591.716 585.663 578.886 585.663 570.973 577.853L499.333 507.142C491.42 499.332 491.42 486.668 499.333 478.858Z" fill="white"/>
<path fill-rule="evenodd" clip-rule="evenodd" d="M499.333 205.238C491.42 197.427 491.42 184.764 499.333 176.953L570.973 106.243C578.886 98.4321 591.716 98.4322 599.629 106.243C607.542 114.053 607.542 126.716 599.629 134.527L527.989 205.238C520.076 213.048 507.246 213.048 499.333 205.238Z" fill="white"/>
<path fill-rule="evenodd" clip-rule="evenodd" d="M552.161 344C552.161 332.954 561.233 324 572.423 324H673.737C684.928 324 694 332.954 694 344C694 355.046 684.928 364 673.737 364H572.423C561.233 364 552.161 355.046 552.161 344Z" fill="white"/>
</svg>
